<?xml version="1.0" encoding="UTF-8"?>
<svg xmlns="http://www.w3.org/2000/svg" version="1.1" viewBox="0 0 472.5 1000">
  <defs>
    <style>
      .cls-1 {
        stroke-width: 8px;
      }

      .cls-1, .cls-2 {
        fill: none;
        stroke: #000;
        stroke-miterlimit: 10;
      }

      .cls-2 {
        stroke-width: 7px;
      }
    </style>
  </defs>
  <!-- Generator: Adobe Illustrator 28.7.1, SVG Export Plug-In . SVG Version: 1.2.0 Build 142)  -->
  <g>
    <g id="Layer_1">
      <g>
        <g>
          <path d="M120.5,822.1h-56v31.4h54.4v18.6h-54.4v43.7h56v18.6H43.4v-130.9h77.1v18.6Z"/>
          <path d="M148.2,934.4v-139.8l101.9,99.9v-91h21.1v138.8l-101.9-99.6v91.6h-21.1Z"/>
          <path d="M325.7,855.7l54.4-52.2h28.1l-63.2,59.3,63.5,71.6h-28.2l-50.3-58.2-4.3,4.1v54.2h-21.1v-130.9h21.1v52.2Z"/>
          <path d="M448.5,803.5v130.9h-21.1v-130.9h21.1Z"/>
        </g>
        <g>
          <path d="M70.6,956.1v6.5c-3.4-2.7-6.9-4-10.5-4s-7.4,1.3-10.1,4c-2.8,2.7-4.1,5.9-4.1,9.8s1.4,7.1,4.1,9.7c2.8,2.6,6.1,3.9,10.1,3.9s3.8-.3,5.3-.9c.8-.3,1.6-.7,2.5-1.3.9-.5,1.8-1.2,2.7-1.9v6.6c-3.4,1.8-6.9,2.7-10.6,2.7-5.6,0-10.3-1.8-14.2-5.5-3.9-3.7-5.9-8.1-5.9-13.3s1.6-8.8,4.9-12.4c4-4.5,9.2-6.7,15.7-6.7s6.9.9,10.1,2.7Z"/>
          <path d="M75.8,972.2c0-5.1,2-9.5,6-13.2,4-3.7,8.8-5.5,14.4-5.5s10.3,1.9,14.3,5.6c4,3.7,6,8.2,6,13.4s-2,9.7-6,13.3c-4,3.7-8.9,5.5-14.5,5.5s-9.5-1.6-13.5-4.9c-4.4-3.6-6.6-8.3-6.6-14.2ZM81.8,972.3c0,4,1.4,7.3,4.3,9.9,2.9,2.6,6.2,3.9,10,3.9s7.5-1.3,10.3-4c2.8-2.7,4.2-5.9,4.2-9.8s-1.4-7.1-4.2-9.8c-2.8-2.6-6.2-4-10.2-4s-7.5,1.3-10.3,4c-2.8,2.6-4.2,5.8-4.2,9.7Z"/>
          <path d="M123.9,990.6v-38.9l28.4,27.8v-25.3h5.9v38.7l-28.4-27.7v25.5h-5.9Z"/>
          <path d="M189.5,959.6l-4.8,2.6c-.9-1.4-1.7-2.4-2.5-2.8-.8-.5-1.9-.8-3.3-.8s-3,.4-4.1,1.3c-1.1.9-1.6,1.9-1.6,3.2s1.4,3.2,4.2,4.3l3.9,1.5c3.2,1.2,5.5,2.7,6.9,4.4s2.2,3.8,2.2,6.3-1.2,6.1-3.6,8.3c-2.4,2.2-5.4,3.3-8.9,3.3s-6.2-.9-8.4-2.8c-2.2-1.9-3.5-4.5-4.1-7.9l5.9-1.2c.3,2.1.7,3.6,1.4,4.4,1.2,1.6,3,2.4,5.3,2.4s3.4-.6,4.6-1.7c1.2-1.1,1.8-2.6,1.8-4.4s-.1-1.4-.3-1.9c-.2-.6-.5-1.1-1-1.6-.4-.5-1-1-1.7-1.4-.7-.4-1.5-.8-2.5-1.2l-3.8-1.5c-5.3-2.1-8-5.2-8-9.3s1.1-5,3.4-6.9c2.2-1.9,5-2.8,8.3-2.8s8,2,10.5,6.1Z"/>
          <path d="M209,959.3v31.3h-5.9v-31.3h-8.9v-5.2h23.7v5.2h-8.9Z"/>
          <path d="M236.4,975.1l12,15.5h-7.2l-11.1-14.9h-1.1v14.9h-5.9v-36.5h6.9c5.1,0,8.9.9,11.1,2.7,2.5,2,3.8,4.7,3.8,8s-.8,4.8-2.4,6.7c-1.6,1.9-3.7,3-6.3,3.6ZM229.1,970.9h1.9c5.6,0,8.3-2,8.3-6s-2.7-5.6-8.1-5.6h-2.1v11.6Z"/>
          <path d="M259.6,954.1v22c0,3.1.5,5.4,1.6,6.9,1.6,2.1,3.9,3.1,6.9,3.1s5.3-1,6.9-3.1c1.1-1.4,1.6-3.7,1.6-6.9v-22h5.9v23.5c0,3.8-1.3,7-3.8,9.5-2.9,2.8-6.4,4.2-10.6,4.2s-7.7-1.4-10.6-4.2c-2.6-2.5-3.8-5.6-3.8-9.5v-23.5h5.9Z"/>
          <path d="M320.6,956.1v6.5c-3.4-2.7-6.9-4-10.5-4s-7.4,1.3-10.1,4c-2.8,2.7-4.1,5.9-4.1,9.8s1.4,7.1,4.1,9.7c2.8,2.6,6.1,3.9,10.1,3.9s3.8-.3,5.3-.9c.8-.3,1.6-.7,2.5-1.3.9-.5,1.8-1.2,2.7-1.9v6.6c-3.4,1.8-6.9,2.7-10.6,2.7-5.6,0-10.3-1.8-14.2-5.5-3.9-3.7-5.9-8.1-5.9-13.3s1.6-8.8,4.9-12.4c4-4.5,9.2-6.7,15.7-6.7s6.9.9,10.1,2.7Z"/>
          <path d="M338.7,959.3v31.3h-5.9v-31.3h-8.9v-5.2h23.7v5.2h-8.9Z"/>
          <path d="M358.8,954.1v36.5h-5.9v-36.5h5.9Z"/>
          <path d="M366.2,972.2c0-5.1,2-9.5,6-13.2,4-3.7,8.8-5.5,14.4-5.5s10.3,1.9,14.3,5.6c4,3.7,6,8.2,6,13.4s-2,9.7-6,13.3c-4,3.7-8.9,5.5-14.5,5.5s-9.5-1.6-13.5-4.9c-4.4-3.6-6.6-8.3-6.6-14.2ZM372.1,972.3c0,4,1.4,7.3,4.3,9.9,2.9,2.6,6.2,3.9,10,3.9s7.5-1.3,10.3-4c2.8-2.7,4.2-5.9,4.2-9.8s-1.4-7.1-4.2-9.8c-2.8-2.6-6.2-4-10.2-4s-7.5,1.3-10.3,4c-2.8,2.6-4.2,5.8-4.2,9.7Z"/>
          <path d="M414.3,990.6v-38.9l28.4,27.8v-25.3h5.9v38.7l-28.4-27.7v25.5h-5.9Z"/>
        </g>
        <path d="M441.9,402.5c-7.8-15.5-17.8-29.6-27.8-43.8-6.9-9.9-13.9-19.7-20.9-29.5-2.5-3.5-2.8-6.6-1.2-10.8,7.6-19.5,11.3-39.7,12.2-60.6,1.4-35.3-4.7-69.4-16.4-102.6-3.5-9.9-3.3-10-13.4-10.2-.8,0-1.6,0-2.4,0-2.3,0-3.9-.9-4.6-3.4-.6-2.3,1-3.3,2.4-4.4,5.9-4.4,11.8-8.8,17.6-13.3,4.8-3.7,5-4.1,1.5-8.7-8.6-11.4-5.8-10.2-16.3-2.7-13.2,9.4-10.9,12.3-16.9-6.2-1-3-.2-5,2.3-6.7,4-2.9,8-6,12-9,10.9-8.2,10.9-8.7,1.6-18.6-2.1-2.2-3.7-2.4-6-.7-4.4,3.4-8.8,6.6-13.2,9.9-2.6,1.9-4.2,1.5-5.2-1.6-1.7-5.5-3.5-11-5.4-16.4-.8-2.2-1.6-4.2-4.6-4.7-11.4-2-14.2-.4-17.7,10.4-.5,1.5-1,3-1.5,4.5-3.6,12.6-4.4,9.1-11.8,3.7-11.8-8.5-8.2-9.5-17.9,2.9-2.4,3-1.8,4.9,1.2,7,5.3,3.8,10.5,7.9,15.7,11.8,2,1.5,3.6,3.2,2.7,5.9-1.6,4.6-2.3,9.6-5.3,14-4.2-1.2-6.9-4.2-10-6.5-10.5-7.5-8-8-15.8,2.3-4,5.3-3.9,5.4,1.7,9.7,4.8,3.7,9.6,7.3,14.4,10.9,2.2,1.6,4,3.2,2.9,6.5-1.2,3.3-3.7,3.3-6.3,3.3-2.1,0-4.2,0-6.3,0-2.5,0-4.4.7-5.9,2.9-12.5,17.7-20.7,36.9-22.8,58.7-.7,7.7,2,12.8,9.1,15.4,4.1,1.4,5.8,3.8,5.5,8.2-.6,6.9-1.6,8.5,8.8,8.7,1.6,0,3.1,0,4.7,0,2.5.1,3.7-.9,4.4-3.4,1.5-5,1.8-5.2,6.8-3.2,9.1,3.7,18.5,5.8,28.3,5.3.9,0,2.2-.3,2.5,1.1-.3,1.8-2,2.3-3.2,3.2-8.7,6-18.8,9.1-28.5,13-5.8,2.3-6.3,2.2-6.3-4.1,0-4.3-1.5-5.7-5.4-5.5-1.3,0-2.6,0-3.9,0-8.2-.2-8.5,0-8.5,8.1,0,11.3-.9,22.5-1.7,33.8-.4,5.2-2,9.4-6.7,12.5-6.1,4.1-11.5,9.1-17.4,13.5-19.6,14.7-30.8,34.7-36.3,58.1-1.2,5.1-3.7,6.8-8.2,7.5-14.3,2.2-28.2,5.7-41.8,10.7-3.8,1.4-7.1,1.1-10.3-1.3-2.5-1.8-5.2-3.7-8.1-4.9-14.3-6-24.9.6-28.6,7.5-5.6,10.3-3.7,20.4,1,30.2,6.9,14.4,6.5,11.1,17,3.8,2.9-2,3.7-4,1.6-7.1-2.5-3.7-4.3-7.9-4.9-12.3-.6-4.5,2.5-7,6.8-5.3,2.1.9,4,2.4,6,3.7,7.4,5,15.4,6.3,23.9,3.3,4.4-1.6,8.9-3.2,13.4-4.5,13.9-4.1,28-6.8,42.4-8.2,7.6-.8,8.1-1.1,7.4-8.7-.9-10.4,1.8-19.7,6.3-28.7,2.2-4.4,4.6-8.9,7.3-13,5-7.8,12.4-13.2,19.5-19.2,1.7,3,.4,4.9-.2,6.8-2.7,8.5-5.9,16.8-9.4,25-2.7,6.2-2.7,6.4,3.4,9.2,10.4,4.8,9.3,6.6,14.4-5.2,10.5-24.5,17-50,19.8-76.6.3-3.2.3-6.3,4-7.8,5.1-2,10.1-4.5,15.2-6.4,3.8-1.4,4.7-.7,5,3.3.4,6.1-.5,12-1.4,18-4.3,27.8-13.2,53.9-28.7,77.5-6,9.2-11.8,18.6-16.4,28.6-1.8,4-4.3,5.8-8.8,6.2-24.3,2.4-48.4,5.9-71.9,12.3-18.8,5.1-37.1,11.2-53.9,21.4-5.3,3.2-5.3,3.7-1.7,8.3,1.4,1.9,3.1,3.6,4.4,5.5,2.1,3,4.1,3.1,7.2,1.2,8.5-5.2,17.7-9.1,27.1-12.4,26.8-9.5,54.6-14.6,82.8-17.6.8,0,1.5.3,1.9,1.4-.1.5-.1,1.4-.5,2-13.7,21.2-30.9,38.2-55.1,47.1-7.6,2.8-15,6.2-22,10.4-7.8,4.8-12.7,11.5-15.1,20.2-2.3,8.3-3.7,16.9-5,25.4-2.6,17.9-4.1,35.9-7.8,53.6-2.5,12-8.8,21-18.8,27.9-9.1,6.2-18.7,11.5-28.5,16.6-5.8,3-11.6,6-17.3,9.3-4.7,2.8-8.4,6.4-7.9,12.5.6,5.9,4.6,9.2,9.5,11.6,1.9.9,3.9,1.5,5.9,2,7,1.8,14,1.6,21.1.7,12.3-1.6,24.1-4.9,35.7-9.1,8-2.9,16.1-4.3,24.6-4.3,10.6,0,20.9,1.7,31.1,4,11.2,2.6,17-7,15.5-14.9-1.1-6-3.1-11.6-5.5-17.2-1.7-4-2.4-7.9-1.9-12.2,2.3-17.5,6.7-34.5,15.4-50,5.7-10.2,9.7-20.9,11.7-32.3.3-2,0-4.3,2.3-5.5,2.3.3,6.6,2.4,8.3,3.6,9.3,7,18.2,12.3,23.5,22.1,6.1,11.1,13.1,27.3,17.2,39.2,11.3,32.6.5,49.2,28.9,69.2,3.7,2.6,25.5,16.2,26.7,20.4,4.8,17,3.9,16.8-8.1,26.8-7.5,6.2-16,10.9-24.4,15.8-6.1,3.6-12.4,6.9-17.9,11.4-11.1,9.2-9.3,23.6,3.8,29.9,4.3,2.1,9,2.8,13.7,2.9,7.6.2,15.2-.9,22.7-2.2,14.8-2.6,29.6-3.5,44.6-1.1,6.2,1,12.5,1.2,18.8.7,4.5-.4,8.7-1.6,12.6-4,6.1-3.7,9.2-9,8.5-16.4-.4-5.1-1.7-9.9-3.8-14.4-3.4-7.1-4.1-14.6-3.7-22.2.8-14.4.6-28.8-.4-43.2-2.6-36.4-7.1-72.5-15.5-108-3.5-15-4.4-29.9-2.1-45.2,1.6-10.8,5-19.7,14.2-26.7,10.4-7.9,19.8-17.1,29.5-26,8.4-7.8,13.5-17.3,13.5-29.1,0-8.2-3-15.4-6.6-22.4ZM371.2,170.6c2.5-.2,3.2,1.5,3.7,3.2,1.7,6,3.5,12,5,18.1,8.1,34.6,9.9,69.3.7,104-.8,2.9-.8,6.3-3.9,8.6-4.5-3-7.2-8.3-13-9.6-2-.5-.8-3.3-.5-4.9,1.5-9.3,2.6-18.6,3.4-28,2.4-26.8.2-53.3-4.3-79.6-1.3-7.6,1.4-11.1,9-11.7ZM378.7,424.8c2.8-.2,4.2.6,5.9,3.6,5.3,9.6,5.1,19.4.2,29.5-20.1-13.2-27.1-22.9-27.1-31.3,7.6-.6,14.3-1.2,21.1-1.7ZM331.7,407.8c-5-.1-18.2.8-28.1,1.2,5.7-8,11.5-12.5,17.6-16.9s22.3-15.4,36.5-22.9,12-6.2,15.4-4.9,5.7,4.2,6.6,5.6c2.8,4.5,3.6,11.6,3.7,14,.2,8.2-.2,12.8-1,15.8s-2.7,5-8.3,6.4c-12.1,3-24.6,2.4-42.4,1.8ZM316.4,137.2c4.4-14,9-27.8,13.6-41.7.3-.8.7-1.3,1.8-1.4,1.6.2,1.7,1.7,2.1,2.9,4.2,12.9,8.5,25.8,12.6,38.8,1.8,5.8,1.4,6.4-4.6,6.5-7.1.1-14.1.2-21.2,0-4.7-.1-5.5-1-4.3-5ZM290.4,194.8c-4.1,2.5-7.5,5.7-9.6,10.1-1,2.2-2.3,3.4-4.9,2.4-2.4-.9-2.9-2.8-2.6-5.1,1.6-11,5.5-21.2,10.8-31,1.7-3.2,4.1-2.4,6.7-1.4,10.2,4.2,20.7,7.3,31.7,8.6,5,.6,9.9.7,14.9.5,5.7-.2,6.1.1,7.1,5.7.3,1.8.4,3.6.8,7.3-10.8-4.5-20.9-5-31.1-4.4-8.5.5-16.5,2.8-23.8,7.2ZM318.6,219.7c-6-.3-12-.8-17-4.8-3-2.4-2.9-4.3.5-5.8,10.9-5,22.2-5.1,33.5-1.1,1.7.6,3.6,1.6,3.8,3.6.2,2.2-1.9,2.9-3.5,3.7-5.4,2.8-11.1,4.6-17.2,4.4ZM325.5,297.5c1.8-10.8,2.9-21.8,2.3-32.8-.1-2.1-.7-4.5,1.3-5.8,6.7-4.3,12.5-9.9,18.9-14.9,2.1,2.5,1.3,4.9,1.2,7.2-.4,16.5-2.9,32.8-6.6,48.9-1,4.3-2.9,7.7-6.8,10-4.9,2.9-8.6,7.4-14.8,10.5,1.6-8.4,3.1-15.7,4.4-23.1ZM293.5,377.5c9.3-19.3,18-40.5,48.2-53.3,8.2-3.5,18.3-8.9,22.2-1,9.2,18.6-.6,27.5-16.1,40.8-19.1,16.2-31.3,19.7-56.5,29.2-1.7.6-3,2.1-5.6,1.9-.5-2.5,6.9-16,7.7-17.6ZM290.1,428.2c11.8-.3,23.6-.4,35.3-.6,3.6,0,5.9,1.5,9.2,3.4,20.5,11.5,31,25.8,38.5,44.4,2.3,5.7,4.5,15.4,2.4,21.6-1.9,5.6-3.1,11.7-4.5,18.2-4.7-2.3-12.5-4.6-16-6.8-11.2-7.2-15.1-13.3-22.7-24.1-6.3-9-27.9-38.8-39.4-47.1s-9.7-6.7-9.9-8.1c1.2-1.8,5.3-.8,7-.8ZM255.9,448.2c2.9-5.1,8.6-6.3,13.7-5.6,9.7,1.2,18.2,4.2,26.3,9.1,9.9,6,19.7,13.3,24.8,24.9,5.4,12.3,12.9,27.4,19.4,35,11.4,13.4,21.2,16.2,28.5,17.2,2.6.4,3.6,2.8,3.9,5.4,1.7,19.6,8.2,38.4,10.7,57.9.5,3.6.9,7.2,1.4,11.1-4,.6-15.1-1.2-17.7-2.7-4.5-2.6-11.6-6.5-17.4-16.4-4-6.8-11.9-20-15.6-26.9-4.3-8.1-6.9-17-12-28-15-32.4-34.7-51.9-65.8-68-2.3-1.2-4.9-1.8-6.6-4.4,1.4-3.3,4.6-5.6,6.4-8.7ZM219.1,513.3c-1,12.7-3.7,24.8-10.2,35.9-10.6,18.2-15.6,38.2-18.4,58.8-.9,6.6-.5,13,2.6,19.2.9,1.8,2.1,3.7.9,6.4-4.8-.4-9.7-.8-14.5-1.2-15.3-1.3-30.2,0-44.8,5.8-9.2,3.6-18.8,6.2-29.3,7,.2-2.6,2-3.1,3.5-3.8,9.2-4.9,18.3-10.1,27-16,13.9-9.4,22.7-21.9,26.2-38.5,3.4-16.2,5.1-32.6,7.3-48.9,1.3-9.3,2.7-18.6,4.8-27.8,1.8-7.8,7.2-11.8,13.8-14.9,1.8-.9,3.4-.8,5.2,0,7.1,3.4,14.1,6.9,21.3,10.1,3.7,1.6,4.9,4,4.5,8ZM396.3,732.1c3.8,8.7,2.2,10.8-7.2,10.4-3.9-.1-7.8-.7-11.7-1.3-17.8-3-35.4-.7-53,2.2-5.9,1-11.8,1.5-17.9.6-.3-3.4,2.5-4,4.3-5.1,7.6-4.7,15.3-9.1,22.8-13.7,7.1-4.4,13.8-9.4,19.9-15.2,6.5-6.3,10.6-13.5,9.6-22.9-.1-1.3-.3-2.6,1.1-4.4,7.9,2.3,15.7,4.7,23.4,6.8,3,.9,4.2,2.7,4.1,5.8-.1,3.4,0,6.8-.1,10.2-.6,9.3,1,18.1,4.8,26.7ZM391.4,664.2c.2,7.2-.5,7.9-7.2,5.8-29.8-9.2-53.7-26.7-71.6-52.2-9.1-13-13.1-27.5-17.9-42.5-4-12.5-5-30.6-11.5-42.1-12-21.1-35.1-31-56.7-42-1.9-1-3.8-1.8-5.6-2.9-5.3-3-5.3-4.5-.1-8.1,1.7-1.2,3.7-2.1,5.2-3.5,5.5-5.3,22.4-1.9,29.9-1.3,39.3,3.3,53.4,48.5,59.1,66.4,4.6,14.5,10.1,30.7,17.2,44.1,6,11.2,12.4,18.6,22.5,26.5,7.3,5.7,18.6,8.2,27.6,10.4,3.9.9,5.8,2.8,6.2,6.8.9,11.7,2,23.5,3,34.7ZM426.4,436.4c-5.9,7.3-13.1,13.3-22,20.3.2-31.6-9.7-60.6-9.1-91.2.7.1,1.1.1,1.2.2,12.5,16.2,24,32.9,32.4,51.6,3.1,6.9,2.2,13.4-2.5,19.1Z"/>
        <rect class="cls-1" x="49.4" y="706.6" width="123.3" height="47.3" rx="4.3" ry="4.3"/>
        <rect class="cls-1" x="77.4" y="677.6" width="123.3" height="47.3" rx="4.3" ry="4.3"/>
        <path class="cls-2" d="M24,707.8"/>
        <path class="cls-2" d="M147.3,752"/>
        <path class="cls-2" d="M147.3,707.8"/>
        <line class="cls-2" x1="39.9" y1="195.1" x2="260.4" y2="7.2"/>
        <line class="cls-2" x1="258.3" y1="36.9" x2="68.8" y2="197.2"/>
        <path class="cls-2" d="M137.3,341v-94.9c0-3.6,3.5-6.5,7.9-6.5h98.5"/>
      </g>
    </g>
  </g>
</svg>